<svg xmlns="http://www.w3.org/2000/svg" width="532" height="537" viewBox="0 0 532 537" fill="none"><rect width="532" height="537" rx="80" fill="url(#paint0_linear_509_74)"></rect><path d="M342.143 206L242.531 330.515C241.518 331.78 239.684 332.013 238.388 331.041L190 294.75" stroke="white" stroke-width="15" stroke-linecap="round" stroke-linejoin="round"></path><path d="M265.821 433.643C309.535 433.643 351.458 416.278 382.368 385.368C413.278 354.458 430.643 312.535 430.643 268.821C430.643 225.108 413.278 183.185 382.368 152.275C351.458 121.365 309.535 104 265.821 104C222.108 104 180.185 121.365 149.275 152.275C118.365 183.185 101 225.108 101 268.821C101 312.535 118.365 354.458 149.275 385.368C180.185 416.278 222.108 433.643 265.821 433.643Z" stroke="white" stroke-width="15" stroke-linecap="round" stroke-linejoin="round"></path><defs><linearGradient id="paint0_linear_509_74" x1="0" y1="0" x2="532" y2="504.5" gradientUnits="userSpaceOnUse"><stop stop-color="#3E7CB1"></stop><stop offset="1" stop-color="#7DBFF7"></stop></linearGradient></defs></svg>