<svg width="56" height="56" viewBox="0 0 56 56" fill="none" xmlns="http://www.w3.org/2000/svg">
<path d="M55 28C55 33.7757 53.1479 39.3992 49.7158 44.0445C46.2836 48.6898 41.4523 52.1121 35.9315 53.8088C30.4106 55.5054 24.4912 55.387 19.0426 53.4709C13.594 51.5547 8.90347 47.9419 5.65988 43.1631C2.41628 38.3842 0.790602 32.6911 1.02161 26.9201C1.25262 21.149 3.32815 15.6041 6.94335 11.0998C10.5585 6.59547 15.5229 3.36914 21.1072 1.89466C26.6915 0.420184 32.6014 0.775278 37.969 2.90779" stroke="#093EB4" stroke-width="2" stroke-linecap="round"/>
<path d="M14.9334 26.1329L25.4263 36.6258C25.8168 37.0163 26.4499 37.0163 26.8405 36.6258L47.6 15.8662" stroke="#093EB4" stroke-width="2" stroke-linecap="round"/>
</svg>
