<?xml version="1.0" encoding="UTF-8"?>
<svg xmlns="http://www.w3.org/2000/svg" width="32" height="32" viewBox="0 0 32 32" fill="none">
  <path d="M15.9995 1.00488C22.0716 1.00503 26.9937 5.92792 26.9937 12C26.9936 15.411 25.4403 18.459 23.0024 20.4756V30C23.0024 30.3463 22.8233 30.6683 22.5288 30.8506C22.2342 31.0328 21.8661 31.0492 21.5562 30.8945L15.9956 28.1211L10.4497 30.8945C10.1398 31.0494 9.77178 31.0327 9.47705 30.8506C9.18228 30.6684 9.00248 30.3465 9.00244 30L9.00244 20.4814C6.56072 18.4649 5.00443 15.4141 5.00439 12C5.00439 5.92783 9.92734 1.00488 15.9995 1.00488ZM21.0024 21.793C19.5017 22.5612 17.8012 22.9941 15.9995 22.9941C14.2003 22.9941 12.5016 22.5621 11.0024 21.7959V28.3818L15.5483 26.1094C15.8295 25.9688 16.1606 25.9681 16.4419 26.1084L21.0024 28.3838L21.0024 21.793ZM15.9995 3.00488C11.0319 3.00488 7.00439 7.0324 7.00439 12C7.00446 16.9675 11.0319 20.9941 15.9995 20.9941C20.9669 20.994 24.9936 16.9675 24.9937 12C24.9937 7.03249 20.967 3.00503 15.9995 3.00488ZM15.9995 4.99512C19.8679 4.99529 23.0034 8.13162 23.0034 12C23.0034 15.8683 19.8678 19.0047 15.9995 19.0049C12.1311 19.0049 8.99467 15.8685 8.99463 12C8.99463 8.13151 12.131 4.99512 15.9995 4.99512ZM15.9995 6.99512C13.2356 6.99512 10.9946 9.23608 10.9946 12C10.9947 14.7639 13.2356 17.0049 15.9995 17.0049C18.7633 17.0047 21.0034 14.7638 21.0034 12C21.0034 9.23619 18.7633 6.99529 15.9995 6.99512Z" fill="#F64747"></path>
</svg>
