<svg width="402" height="402" viewBox="0 0 402 402" fill="none" xmlns="http://www.w3.org/2000/svg">
<rect width="402" height="402" rx="201" fill="#E0F8EA"/>
<path d="M299.756 135H244.756C241.839 135 239.041 136.159 236.978 138.222C234.915 140.285 233.756 143.083 233.756 146C233.756 148.917 234.915 151.715 236.978 153.778C239.041 155.841 241.839 157 244.756 157H273.202L211.756 218.446L175.533 182.223C173.47 180.161 170.673 179.002 167.756 179.002C164.839 179.002 162.042 180.161 159.979 182.223L93.9793 248.223C92.9287 249.238 92.0906 250.452 91.5141 251.794C90.9377 253.136 90.6342 254.579 90.6215 256.04C90.6088 257.5 90.8871 258.949 91.4402 260.3C91.9933 261.652 92.8101 262.881 93.8429 263.913C94.8757 264.946 96.1039 265.763 97.4558 266.316C98.8076 266.869 100.256 267.147 101.717 267.135C103.177 267.122 104.621 266.819 105.963 266.242C107.305 265.666 108.519 264.828 109.533 263.777L167.756 205.554L203.979 241.777C206.042 243.839 208.839 244.998 211.756 244.998C214.673 244.998 217.47 243.839 219.533 241.777L288.756 172.554V201C288.756 203.917 289.915 206.715 291.978 208.778C294.041 210.841 296.839 212 299.756 212C302.674 212 305.472 210.841 307.534 208.778C309.597 206.715 310.756 203.917 310.756 201V146C310.756 143.083 309.597 140.285 307.534 138.222C305.472 136.159 302.674 135 299.756 135Z" fill="#2AD586"/>
</svg>
